<svg xmlns="http://www.w3.org/2000/svg" viewBox="0 0 512 512" role="img" aria-label="GıyBet">
  <defs>
    <linearGradient id="neon" x1="0%" y1="0%" x2="100%" y2="100%">
      <stop offset="0%" stop-color="#a855f7"/>
      <stop offset="45%" stop-color="#d946ef"/>
      <stop offset="100%" stop-color="#f43f5e"/>
    </linearGradient>
    <radialGradient id="aura" cx="50%" cy="42%" r="52%">
      <stop offset="0%" stop-color="#a855f7" stop-opacity="0.45"/>
      <stop offset="70%" stop-color="#ec4899" stop-opacity="0.12"/>
      <stop offset="100%" stop-color="#08080f" stop-opacity="0"/>
    </radialGradient>
    <filter id="glow" x="-20%" y="-20%" width="140%" height="140%">
      <feGaussianBlur stdDeviation="12" result="blur"/>
      <feMerge>
        <feMergeNode in="blur"/>
        <feMergeNode in="SourceGraphic"/>
      </feMerge>
    </filter>
  </defs>
  <rect width="512" height="512" rx="112" fill="#08080f"/>
  <circle cx="256" cy="230" r="210" fill="url(#aura)"/>
  <circle cx="256" cy="230" r="168" fill="none" stroke="url(#neon)" stroke-width="6" opacity="0.22"/>
  <circle cx="256" cy="230" r="118" fill="none" stroke="url(#neon)" stroke-width="3" opacity="0.18"/>
  <g filter="url(#glow)">
    <path
      fill="url(#neon)"
      d="M118 148h232c22 0 40 18 40 40v108c0 22-18 40-40 40h-148l-56 48v-48h-84c-22 0-40-18-40-40v-108c0-22 18-40 40-40z"
    />
  </g>
  <circle cx="196" cy="218" r="22" fill="#08080f" opacity="0.9"/>
  <circle cx="256" cy="218" r="22" fill="#08080f" opacity="0.9"/>
  <circle cx="316" cy="218" r="22" fill="#08080f" opacity="0.9"/>
  <path
    fill="#f472b6"
    d="M356 332c0-33 27-52 52-72 8-6 8-18 0-24-25-20-52-39-52-72 0-29 23-52 52-52s52 23 52 52c0 33-27 52-52 72-8 6-8 18 0 24 25 20 52 39 52 72 0 29-23 52-52 52s-52-23-52-52z"
  />
  <circle cx="404" cy="332" r="18" fill="#08080f" opacity="0.85"/>
</svg>
